<?xml version="1.0" encoding="iso-8859-1"?>
<!-- Generator: Adobe Illustrator 19.0.0, SVG Export Plug-In . SVG Version: 6.00 Build 0)  -->
<svg version="1.1" id="Capa_1" xmlns="http://www.w3.org/2000/svg" xmlns:xlink="http://www.w3.org/1999/xlink" x="0px" y="0px"
	 viewBox="0 0 59 59" style="enable-background:new 0 0 59 59;" xml:space="preserve">
<g>
	<g>
		<path d="M16.088,12.047c1.488-2.082,3.396-3.751,5.673-4.961l0.883-0.47l-0.94-1.766l-0.883,0.47
			c-2.551,1.356-4.69,3.229-6.36,5.564l-0.582,0.814l1.628,1.163L16.088,12.047z"/>
		<path d="M34.651,38.822l-7.972,1.326l-0.328-1.973l7.972-1.326L34.651,38.822z"/>
		<path d="M51.506,49H41.255l-1.916-6.704c2.437-2.125,4.191-5.012,4.859-8.296H51.5c0.553,0,1-0.447,1-1V22c0-0.553-0.447-1-1-1
			h-0.025C50.95,9.332,41.296,0,29.5,0S8.05,9.332,7.525,21H7.5c-0.553,0-1,0.447-1,1v11c0,0.553,0.447,1,1,1h3v4
			c0,0.521,0.4,0.955,0.92,0.997l5.698,0.456c0.722,1.055,1.583,2.005,2.544,2.844L17.745,49H7.494C4.74,49,2.5,51.243,2.5,54v4
			c0,0.553,0.447,1,1,1h10h32h10c0.553,0,1-0.447,1-1v-4C56.5,51.243,54.26,49,51.506,49z M39.174,49H30.5v-3.051
			c2.615-0.174,5.048-1.013,7.128-2.36L39.174,49z M50.5,32h-6v-0.996V30v-2v-5h6V32z M28.5,26.382L25.264,28H16.5v-6v-2.003v-0.13
			l12-1.715V26.382z M30.5,18.153l12,1.715v0.13V22v6h-8.764L30.5,26.382V18.153z M29.5,2c10.692,0,19.453,8.435,19.976,19H44.5
			v-1.003V19c0-0.498-0.366-0.92-0.858-0.99l-14-2c-0.094-0.014-0.19-0.014-0.283,0l-14,2C14.866,18.08,14.5,18.502,14.5,19v0.997
			V21H9.524C10.047,10.435,18.808,2,29.5,2z M8.5,32v-9h6v5v2v1.004V32h-2h-2H8.5z M12.5,37.077V34h2.302
			c0.239,1.175,0.63,2.293,1.128,3.351L12.5,37.077z M18.282,37.54c-1.125-1.923-1.782-4.152-1.782-6.536V30h9
			c0.155,0,0.309-0.036,0.447-0.105l3.553-1.776l3.553,1.776C33.191,29.964,33.345,30,33.5,30h9v1.004C42.5,38.17,36.668,44,29.5,44
			c-3.836,0-7.278-1.679-9.66-4.33l5.077,0.406l0.159-1.993L18.282,37.54z M21.372,43.589c2.081,1.348,4.513,2.187,7.128,2.36V49
			h-8.674L21.372,43.589z M14.5,57v-2h30v2H14.5z M54.5,57h-8v-3c0-0.553-0.447-1-1-1h-32c-0.553,0-1,0.447-1,1v3h-8v-3
			c0-1.654,1.343-3,2.994-3H18.5h11h11h11.006c1.651,0,2.994,1.346,2.994,3V57z"/>
	</g>
</g>
<g>
</g>
<g>
</g>
<g>
</g>
<g>
</g>
<g>
</g>
<g>
</g>
<g>
</g>
<g>
</g>
<g>
</g>
<g>
</g>
<g>
</g>
<g>
</g>
<g>
</g>
<g>
</g>
<g>
</g>
</svg>
